<svg width="187" height="50" viewBox="0 0 187 50" fill="none" xmlns="http://www.w3.org/2000/svg">
<path d="M43.75 22.9167C43.75 34.4792 35.75 45.2917 25 47.9167C14.25 45.2917 6.25 34.4792 6.25 22.9167V10.4167L25 2.08334L43.75 10.4167V22.9167ZM25 43.75C32.8125 41.6667 39.5833 32.375 39.5833 23.375V13.125L25 6.625L10.4167 13.125V23.375C10.4167 32.375 17.1875 41.6667 25 43.75ZM30.8333 22.9167V19.7917C30.8333 16.875 27.9167 14.5833 25 14.5833C22.0833 14.5833 19.1667 16.875 19.1667 19.7917V22.9167C17.9167 22.9167 16.6667 24.1667 16.6667 25.4167V32.7083C16.6667 34.1667 17.9167 35.4167 19.1667 35.4167H30.625C32.0833 35.4167 33.3333 34.1667 33.3333 32.9167V25.625C33.3333 24.1667 32.0833 22.9167 30.8333 22.9167ZM28.125 22.9167H21.875V19.7917C21.875 18.125 23.3333 17.0833 25 17.0833C26.6667 17.0833 28.125 18.125 28.125 19.7917V22.9167Z" fill="white"/>
<path d="M55.2642 32V17.4545H64.8949V19.9901H58.3395V23.456H64.2557V25.9915H58.3395V32H55.2642ZM80.3299 24.7273C80.3299 26.3134 80.0292 27.6629 79.4279 28.7756C78.8313 29.8883 78.0169 30.7382 76.9847 31.3253C75.9573 31.9077 74.802 32.1989 73.5188 32.1989C72.2262 32.1989 71.0662 31.9053 70.0387 31.3182C69.0112 30.7311 68.1992 29.8812 67.6026 28.7685C67.006 27.6558 66.7077 26.3087 66.7077 24.7273C66.7077 23.1411 67.006 21.7917 67.6026 20.679C68.1992 19.5663 69.0112 18.7187 70.0387 18.1364C71.0662 17.5492 72.2262 17.2557 73.5188 17.2557C74.802 17.2557 75.9573 17.5492 76.9847 18.1364C78.0169 18.7187 78.8313 19.5663 79.4279 20.679C80.0292 21.7917 80.3299 23.1411 80.3299 24.7273ZM77.212 24.7273C77.212 23.6998 77.0581 22.8333 76.7504 22.1278C76.4473 21.4223 76.0188 20.8873 75.4648 20.5227C74.9109 20.1581 74.2622 19.9759 73.5188 19.9759C72.7754 19.9759 72.1268 20.1581 71.5728 20.5227C71.0188 20.8873 70.5879 21.4223 70.2802 22.1278C69.9772 22.8333 69.8256 23.6998 69.8256 24.7273C69.8256 25.7547 69.9772 26.6212 70.2802 27.3267C70.5879 28.0322 71.0188 28.5672 71.5728 28.9318C72.1268 29.2964 72.7754 29.4787 73.5188 29.4787C74.2622 29.4787 74.9109 29.2964 75.4648 28.9318C76.0188 28.5672 76.4473 28.0322 76.7504 27.3267C77.0581 26.6212 77.212 25.7547 77.212 24.7273ZM95.4418 22.5469H92.331C92.2741 22.1444 92.1581 21.7869 91.983 21.4744C91.8078 21.1572 91.5829 20.8873 91.3082 20.6648C91.0336 20.4422 90.7164 20.2718 90.3565 20.1534C90.0014 20.035 89.6155 19.9759 89.1989 19.9759C88.446 19.9759 87.7902 20.1629 87.2315 20.5369C86.6728 20.9062 86.2396 21.446 85.9318 22.1562C85.6241 22.8617 85.4702 23.7187 85.4702 24.7273C85.4702 25.7642 85.6241 26.6354 85.9318 27.3409C86.2443 28.0464 86.6799 28.5791 87.2386 28.9389C87.7973 29.2988 88.4437 29.4787 89.1776 29.4787C89.5895 29.4787 89.9706 29.4242 90.321 29.3153C90.6761 29.2064 90.991 29.0478 91.2656 28.8395C91.5402 28.6264 91.7675 28.3684 91.9474 28.0653C92.1321 27.7623 92.2599 27.4167 92.331 27.0284L95.4418 27.0426C95.3613 27.7102 95.16 28.3542 94.8381 28.9744C94.5208 29.59 94.0923 30.1416 93.5526 30.6293C93.0175 31.1122 92.3783 31.4957 91.6349 31.7798C90.8963 32.0592 90.0606 32.1989 89.1278 32.1989C87.8305 32.1989 86.6705 31.9053 85.6477 31.3182C84.6297 30.7311 83.8248 29.8812 83.233 28.7685C82.6458 27.6558 82.3523 26.3087 82.3523 24.7273C82.3523 23.1411 82.6506 21.7917 83.2472 20.679C83.8438 19.5663 84.6534 18.7187 85.6761 18.1364C86.6989 17.5492 87.8494 17.2557 89.1278 17.2557C89.9706 17.2557 90.7519 17.3741 91.4716 17.6108C92.196 17.8475 92.8376 18.1932 93.3963 18.6477C93.955 19.0975 94.4096 19.6491 94.7599 20.3026C95.1151 20.956 95.3423 21.7041 95.4418 22.5469ZM111.013 24.7273C111.013 26.3134 110.713 27.6629 110.112 28.7756C109.515 29.8883 108.701 30.7382 107.668 31.3253C106.641 31.9077 105.486 32.1989 104.202 32.1989C102.91 32.1989 101.75 31.9053 100.722 31.3182C99.6948 30.7311 98.8828 29.8812 98.2862 28.7685C97.6896 27.6558 97.3913 26.3087 97.3913 24.7273C97.3913 23.1411 97.6896 21.7917 98.2862 20.679C98.8828 19.5663 99.6948 18.7187 100.722 18.1364C101.75 17.5492 102.91 17.2557 104.202 17.2557C105.486 17.2557 106.641 17.5492 107.668 18.1364C108.701 18.7187 109.515 19.5663 110.112 20.679C110.713 21.7917 111.013 23.1411 111.013 24.7273ZM107.896 24.7273C107.896 23.6998 107.742 22.8333 107.434 22.1278C107.131 21.4223 106.702 20.8873 106.148 20.5227C105.594 20.1581 104.946 19.9759 104.202 19.9759C103.459 19.9759 102.81 20.1581 102.256 20.5227C101.702 20.8873 101.272 21.4223 100.964 22.1278C100.661 22.8333 100.509 23.6998 100.509 24.7273C100.509 25.7547 100.661 26.6212 100.964 27.3267C101.272 28.0322 101.702 28.5672 102.256 28.9318C102.81 29.2964 103.459 29.4787 104.202 29.4787C104.946 29.4787 105.594 29.2964 106.148 28.9318C106.702 28.5672 107.131 28.0322 107.434 27.3267C107.742 26.6212 107.896 25.7547 107.896 24.7273ZM113.292 32V17.4545H123.093V19.9901H116.367V23.456H122.588V25.9915H116.367V29.4645H123.121V32H113.292ZM125.538 17.4545H129.33L133.336 27.2273H133.506L137.512 17.4545H141.305V32H138.322V22.5327H138.201L134.437 31.929H132.406L128.641 22.4972H128.521V32H125.538V17.4545ZM151.729 21.6378C151.672 21.0649 151.428 20.6198 150.998 20.3026C150.567 19.9853 149.982 19.8267 149.243 19.8267C148.741 19.8267 148.318 19.8977 147.972 20.0398C147.626 20.1771 147.361 20.3688 147.176 20.6151C146.997 20.8613 146.907 21.1406 146.907 21.4531C146.897 21.7135 146.952 21.9408 147.07 22.1349C147.193 22.3291 147.361 22.4972 147.574 22.6392C147.787 22.7765 148.033 22.8973 148.313 23.0014C148.592 23.1009 148.891 23.1861 149.208 23.2571L150.515 23.5696C151.149 23.7116 151.731 23.901 152.262 24.1378C152.792 24.3745 153.251 24.6657 153.64 25.0114C154.028 25.357 154.328 25.7642 154.542 26.233C154.759 26.7017 154.871 27.2391 154.875 27.8452C154.871 28.7353 154.643 29.5071 154.194 30.1605C153.748 30.8092 153.105 31.3134 152.262 31.6733C151.424 32.0284 150.413 32.206 149.229 32.206C148.055 32.206 147.032 32.026 146.161 31.6662C145.294 31.3063 144.617 30.7737 144.13 30.0682C143.647 29.358 143.393 28.4796 143.37 27.4332H146.346C146.379 27.9209 146.518 28.3281 146.765 28.6548C147.016 28.9768 147.349 29.2206 147.766 29.3864C148.187 29.5473 148.663 29.6278 149.194 29.6278C149.714 29.6278 150.167 29.5521 150.55 29.4006C150.938 29.2491 151.239 29.0384 151.452 28.7685C151.665 28.4986 151.772 28.1884 151.772 27.8381C151.772 27.5114 151.675 27.2367 151.48 27.0142C151.291 26.7917 151.012 26.6023 150.642 26.446C150.278 26.2898 149.83 26.1477 149.3 26.0199L147.716 25.6222C146.49 25.3239 145.522 24.8575 144.811 24.223C144.101 23.5885 143.748 22.7339 143.753 21.6591C143.748 20.7784 143.983 20.009 144.456 19.3509C144.935 18.6927 145.59 18.179 146.424 17.8097C147.257 17.4403 148.204 17.2557 149.265 17.2557C150.344 17.2557 151.286 17.4403 152.091 17.8097C152.901 18.179 153.531 18.6927 153.98 19.3509C154.43 20.009 154.662 20.7713 154.676 21.6378H151.729ZM156.944 32V17.4545H166.745V19.9901H160.019V23.456H166.241V25.9915H160.019V29.4645H166.773V32H156.944ZM182.024 22.5469H178.913C178.856 22.1444 178.74 21.7869 178.565 21.4744C178.39 21.1572 178.165 20.8873 177.89 20.6648C177.616 20.4422 177.298 20.2718 176.939 20.1534C176.583 20.035 176.198 19.9759 175.781 19.9759C175.028 19.9759 174.372 20.1629 173.814 20.5369C173.255 20.9062 172.822 21.446 172.514 22.1562C172.206 22.8617 172.052 23.7187 172.052 24.7273C172.052 25.7642 172.206 26.6354 172.514 27.3409C172.826 28.0464 173.262 28.5791 173.821 28.9389C174.379 29.2988 175.026 29.4787 175.76 29.4787C176.172 29.4787 176.553 29.4242 176.903 29.3153C177.258 29.2064 177.573 29.0478 177.848 28.8395C178.122 28.6264 178.35 28.3684 178.529 28.0653C178.714 27.7623 178.842 27.4167 178.913 27.0284L182.024 27.0426C181.943 27.7102 181.742 28.3542 181.42 28.9744C181.103 29.59 180.674 30.1416 180.135 30.6293C179.6 31.1122 178.96 31.4957 178.217 31.7798C177.478 32.0592 176.643 32.1989 175.71 32.1989C174.413 32.1989 173.252 31.9053 172.23 31.3182C171.212 30.7311 170.407 29.8812 169.815 28.7685C169.228 27.6558 168.934 26.3087 168.934 24.7273C168.934 23.1411 169.233 21.7917 169.829 20.679C170.426 19.5663 171.235 18.7187 172.258 18.1364C173.281 17.5492 174.431 17.2557 175.71 17.2557C176.553 17.2557 177.334 17.3741 178.054 17.6108C178.778 17.8475 179.42 18.1932 179.978 18.6477C180.537 19.0975 180.992 19.6491 181.342 20.3026C181.697 20.956 181.924 21.7041 182.024 22.5469Z" fill="white"/>
</svg>
